# xmcd
#
# Track frame offsets:
#	150
#	3793
#	23556
#	39278
#	58905
#	77418
#	98192
#	120598
#	147622
#	170220
#	186565
#	219597
#	240587
#
# Disc length: 3372 seconds
#
# Revision: 1
# Processed by: cddbd v1.5.2PL0 Copyright (c) Steve Scherf et al.
# Submitted via: EasyCDDAExtractor 5.0.6
#
DISCID=ae0d2a0d
DTITLE=Dinho Nascimento - Ser-Hum-Mano
DYEAR=2006
DGENRE=Samba
TTITLE0=Abertura - Trecho de Berimbau Trance
TTITLE1=Saci Perere tem uma perna so
TTITLE2=Gunga Zambi
TTITLE3=Aguai Vem
TTITLE4=Ginga Bento
TTITLE5=Bala de Amor
TTITLE6=Berimbau Trance
TTITLE7=Um Mundo No. 1
TTITLE8=Sapopemba
TTITLE9=Natureza Tem Surpresas
TTITLE10=Muita Gente E Zumbi
TTITLE11=Samba de Roda
TTITLE12=Hino Nacional Brasileiro
EXTD=
EXTT0=
EXTT1=
EXTT2=
EXTT3=
EXTT4=
EXTT5=
EXTT6=
EXTT7=
EXTT8=
EXTT9=
EXTT10=
EXTT11=
EXTT12=
PLAYORDER=
